<?xml version="1.0" standalone="no"?>
<!DOCTYPE svg PUBLIC "-//W3C//DTD SVG 20010904//EN"
 "http://www.w3.org/TR/2001/REC-SVG-20010904/DTD/svg10.dtd">
<svg version="1.0" xmlns="http://www.w3.org/2000/svg"
 width="784.000000pt" height="784.000000pt" viewBox="0 0 784.000000 784.000000"
 preserveAspectRatio="xMidYMid meet">
<metadata>
Created by potrace 1.11, written by Peter Selinger 2001-2013
</metadata>
<g transform="translate(0.000000,784.000000) scale(0.100000,-0.100000)"
fill="#000000" stroke="none">
<path d="M3920 7744 c0 -6 -38 -11 -102 -13 -57 -1 -121 -4 -143 -6 -22 -3
-74 -7 -115 -9 -41 -3 -86 -8 -99 -10 -13 -3 -41 -6 -63 -8 -29 -1 -37 -6 -33
-16 4 -12 3 -13 -9 -3 -9 8 -27 10 -43 7 -15 -4 -41 -9 -57 -12 -16 -3 -34 -6
-40 -7 -6 -1 -10 5 -8 13 3 12 0 11 -15 -2 -10 -9 -35 -19 -55 -23 -21 -4 -36
-10 -34 -14 2 -3 -7 -6 -20 -6 -13 0 -24 5 -24 10 0 6 -4 5 -8 -1 -6 -11 -98
-39 -162 -51 -49 -9 -55 -10 -85 -23 -16 -7 -42 -13 -57 -14 -14 0 -24 -4 -22
-8 2 -3 -10 -10 -28 -13 -18 -4 -38 -11 -44 -16 -6 -5 -19 -10 -30 -12 -10 -1
-25 -6 -31 -10 -7 -5 -13 -5 -13 -1 0 4 -9 -1 -20 -11 -15 -14 -20 -15 -20 -4
0 10 -2 11 -8 2 -10 -17 -61 -34 -75 -26 -7 3 -9 3 -5 -2 9 -10 -40 -37 -53
-29 -5 3 -9 0 -9 -5 0 -6 -9 -11 -20 -11 -11 0 -20 -4 -20 -8 0 -7 -39 -25
-63 -30 -4 -1 -27 -13 -52 -27 -24 -15 -50 -23 -56 -19 -8 4 -9 3 -5 -4 7 -11
-14 -17 -39 -12 -5 1 -7 -2 -2 -6 8 -8 -103 -75 -114 -68 -4 2 -10 -3 -13 -12
-3 -8 -10 -12 -16 -9 -5 3 -10 3 -10 -2 0 -7 -28 -26 -89 -60 -12 -7 -27 -10
-32 -7 -5 3 -8 1 -7 -4 4 -14 -84 -72 -97 -65 -5 4 -7 3 -3 -2 8 -9 -31 -42
-44 -37 -8 2 -12 -14 -9 -31 1 -5 -3 -6 -8 -2 -13 8 -63 -24 -55 -36 3 -5 -1
-6 -9 -4 -7 3 -21 -3 -31 -14 -10 -11 -23 -18 -27 -15 -5 3 -6 -3 -2 -13 3
-10 3 -15 -2 -11 -4 4 -22 -4 -40 -17 -17 -14 -35 -22 -40 -17 -5 4 -5 1 -1
-6 7 -12 -15 -42 -32 -42 -5 0 -49 -38 -98 -84 -48 -47 -93 -82 -99 -79 -5 4
-7 3 -3 -1 3 -4 -20 -34 -52 -67 -32 -32 -56 -59 -52 -59 3 0 -3 -6 -13 -14
-11 -8 -24 -12 -29 -9 -5 4 -6 2 -3 -3 8 -13 -48 -75 -59 -66 -4 4 -2 -1 6
-11 7 -10 9 -17 4 -15 -17 5 -51 -27 -48 -45 2 -15 0 -16 -12 -6 -12 10 -13 9
-8 -5 6 -14 -5 -21 -28 -17 -4 0 -5 -5 -3 -12 3 -6 -9 -27 -25 -44 -17 -18
-28 -33 -25 -33 3 0 -8 -14 -25 -31 -16 -18 -30 -38 -30 -44 0 -7 -7 -15 -15
-19 -8 -3 -15 -13 -15 -22 0 -10 -5 -14 -16 -10 -8 3 -13 2 -9 -3 8 -15 -6
-42 -19 -34 -6 3 -8 3 -4 -2 11 -11 -11 -47 -24 -39 -7 4 -8 3 -4 -4 4 -7 2
-12 -5 -12 -7 0 -9 -3 -6 -7 4 -3 -4 -21 -18 -38 -13 -18 -22 -35 -19 -37 2
-3 -2 -11 -11 -18 -8 -7 -15 -18 -15 -25 0 -6 -10 -17 -23 -23 -14 -7 -16 -11
-7 -11 9 -1 11 -4 5 -9 -6 -4 -21 -28 -34 -54 -13 -26 -28 -45 -34 -41 -6 3
-7 1 -4 -4 4 -6 -4 -30 -18 -54 -13 -24 -34 -64 -46 -89 -12 -25 -29 -53 -37
-62 -8 -10 -12 -18 -9 -18 4 0 -3 -21 -13 -46 -11 -25 -17 -51 -13 -56 3 -6 2
-8 -4 -5 -8 5 -57 -89 -58 -113 -1 -3 -6 -14 -11 -25 -6 -11 -14 -32 -18 -47
-3 -14 -14 -29 -24 -31 -15 -4 -15 -5 0 -6 14 -1 14 -5 5 -26 -7 -14 -15 -25
-19 -25 -3 0 -4 -9 -1 -20 3 -12 0 -20 -7 -20 -7 0 -10 -7 -6 -15 3 -8 0 -20
-7 -27 -7 -7 -13 -20 -13 -28 -4 -38 -16 -85 -24 -96 -6 -6 -7 -14 -3 -17 3
-4 2 -7 -4 -7 -6 0 -9 -9 -6 -20 3 -11 1 -20 -5 -20 -6 0 -8 -9 -5 -20 3 -11
1 -20 -5 -20 -5 0 -8 -14 -7 -30 1 -17 -4 -37 -12 -45 -8 -9 -10 -15 -3 -15 7
0 8 -6 0 -19 -5 -11 -10 -31 -10 -45 0 -14 -3 -26 -7 -26 -5 0 -9 -13 -10 -30
-4 -67 -6 -80 -13 -80 -5 0 -6 -10 -2 -22 3 -11 1 -19 -4 -16 -5 3 -10 -19
-11 -51 -3 -80 -7 -121 -13 -121 -3 0 -5 -22 -5 -50 1 -27 -2 -50 -6 -50 -4 0
-5 -10 -1 -22 4 -15 2 -19 -7 -14 -10 6 -10 4 0 -11 8 -13 9 -30 4 -49 -5 -16
-7 -33 -6 -39 4 -12 2 -110 -3 -147 -2 -14 0 -32 5 -39 10 -17 0 -40 -15 -32
-8 5 -8 3 1 -8 7 -8 13 -63 15 -137 2 -67 5 -122 8 -122 3 0 6 -21 7 -48 1
-26 4 -67 8 -92 6 -49 15 -130 18 -172 1 -14 5 -24 9 -21 13 7 9 -22 -4 -36
-10 -11 -10 -13 0 -7 12 7 14 1 16 -66 0 -14 4 -24 8 -22 7 5 10 -8 12 -63 1
-10 4 -20 8 -24 4 -3 9 -19 11 -37 2 -18 7 -35 10 -39 4 -3 7 -18 7 -33 0 -14
5 -31 11 -37 6 -6 12 -27 13 -47 2 -20 6 -39 9 -43 4 -3 7 -15 7 -25 0 -10 5
-18 11 -18 8 0 7 -6 -2 -17 -8 -9 -9 -14 -3 -10 7 4 15 0 18 -9 9 -24 7 -36
-6 -28 -7 4 -8 3 -4 -5 4 -6 12 -8 18 -5 7 5 9 1 5 -9 -3 -8 0 -21 8 -27 12
-10 24 -50 28 -97 1 -12 6 -21 12 -20 5 1 9 -2 10 -8 0 -5 4 -16 8 -22 5 -7 6
-13 2 -13 -3 0 3 -17 14 -39 11 -21 17 -41 14 -45 -4 -3 -1 -6 6 -6 8 0 11 -7
7 -15 -3 -8 -2 -15 3 -15 9 0 54 -104 54 -126 0 -7 4 -11 9 -8 4 3 8 -4 8 -16
0 -14 4 -19 12 -14 8 5 9 2 5 -9 -3 -10 -2 -17 4 -17 6 0 8 -10 4 -22 -4 -16
-3 -19 3 -10 7 11 10 10 16 -3 3 -9 3 -22 -1 -27 -3 -7 -1 -8 5 -4 7 4 12 1
12 -8 0 -9 3 -16 8 -16 6 0 36 -57 36 -70 0 -3 8 -14 18 -24 9 -10 15 -23 12
-28 -3 -4 0 -8 6 -8 6 0 9 -4 6 -8 -3 -5 4 -15 14 -22 14 -10 16 -17 8 -27
-10 -13 -9 -14 13 -17 5 0 18 -14 27 -31 9 -16 20 -32 24 -35 3 -3 8 -12 10
-20 2 -8 13 -25 26 -38 12 -13 20 -28 17 -33 -4 -5 1 -9 10 -9 9 0 13 -4 10
-10 -3 -5 -1 -10 5 -10 6 0 8 -5 3 -12 -11 -19 -13 -39 -2 -32 5 3 7 10 4 15
-4 5 2 9 11 9 10 0 15 -3 11 -6 -3 -4 4 -21 17 -38 13 -17 21 -38 19 -46 -3
-11 -2 -12 4 -2 7 9 18 1 40 -30 17 -24 40 -54 52 -67 11 -13 18 -28 14 -34
-3 -5 -2 -8 3 -5 5 3 18 -4 29 -15 11 -11 14 -17 8 -13 -9 5 -11 2 -7 -8 3 -9
9 -14 14 -11 10 6 52 -40 43 -49 -4 -4 1 -4 11 0 14 5 17 4 12 -4 -4 -7 -1
-15 8 -18 9 -3 16 -13 16 -21 0 -8 5 -11 10 -8 9 6 14 -8 11 -27 0 -5 2 -7 7
-7 18 3 32 -2 32 -12 0 -6 -7 -8 -16 -5 -9 3 -12 2 -9 -5 4 -6 13 -8 20 -5 14
5 55 -37 55 -57 0 -8 4 -7 10 3 5 8 10 10 10 4 0 -6 17 -28 37 -50 21 -21 38
-43 38 -49 0 -5 8 -9 18 -7 10 2 17 -3 17 -13 0 -8 7 -15 16 -15 10 0 14 -5
10 -16 -3 -8 -2 -12 4 -9 12 8 70 -35 70 -52 0 -7 4 -12 8 -11 9 3 60 -34 108
-78 19 -18 34 -29 34 -25 1 3 9 -4 19 -16 10 -12 21 -19 25 -16 3 4 6 0 6 -9
0 -8 7 -15 15 -16 8 -1 21 -3 29 -4 8 -1 12 -8 8 -16 -3 -10 -1 -13 6 -9 5 4
22 -7 37 -25 15 -18 24 -27 20 -20 -5 10 1 9 24 -2 17 -9 31 -21 31 -26 0 -6
6 -10 13 -10 19 0 78 -46 70 -54 -4 -4 0 -4 9 -1 9 4 19 1 23 -4 3 -6 11 -8
17 -5 6 4 8 2 5 -3 -4 -6 8 -17 26 -24 17 -7 34 -15 37 -18 9 -10 69 -42 123
-66 20 -9 35 -20 32 -25 -3 -5 4 -7 15 -5 11 2 20 0 20 -6 0 -5 -5 -9 -11 -9
-5 0 -7 -5 -3 -11 5 -8 8 -8 14 0 8 14 29 11 48 -7 8 -7 18 -10 23 -7 5 4 9 1
9 -4 0 -6 9 -11 20 -11 12 0 20 -7 20 -17 0 -15 2 -16 10 -3 6 10 10 11 10 2
0 -6 3 -11 8 -10 16 3 61 -15 56 -23 -3 -5 6 -9 20 -9 14 0 26 -5 26 -10 0 -6
8 -10 18 -8 9 2 16 -3 14 -9 -1 -7 2 -13 8 -13 5 0 10 4 10 9 0 5 11 4 24 -2
13 -7 23 -14 20 -18 -2 -3 10 -6 27 -7 17 0 36 -5 42 -10 7 -5 35 -15 64 -22
29 -8 50 -17 48 -21 -3 -4 2 -10 11 -13 9 -3 12 -11 8 -18 -4 -7 2 -5 13 5 11
9 22 15 24 12 5 -5 43 -13 67 -14 7 -1 10 -6 6 -12 -4 -7 0 -9 14 -5 11 4 23
3 26 -3 3 -5 16 -7 28 -3 13 3 19 1 15 -5 -4 -6 7 -10 25 -11 17 0 35 -7 39
-14 7 -10 9 -10 9 2 0 13 1 13 10 0 5 -8 12 -11 16 -7 4 4 18 0 32 -9 13 -9
22 -11 18 -6 -4 6 2 10 14 9 11 -1 20 -4 20 -7 0 -5 27 -10 68 -13 6 0 12 -4
12 -9 0 -4 5 -8 11 -8 6 0 7 6 2 13 -4 6 6 4 21 -7 16 -10 25 -13 22 -7 -5 7
-1 9 8 5 9 -3 14 -9 11 -13 -2 -4 2 -8 10 -8 8 0 12 4 9 8 -2 4 5 7 16 6 11
-1 20 -5 20 -10 0 -5 7 -3 16 4 15 12 16 11 10 -11 -5 -19 -5 -21 3 -9 6 9 20
15 33 13 13 -1 32 -3 43 -3 17 -1 17 -3 5 -11 -9 -6 -10 -10 -3 -10 6 0 15 5
18 10 10 15 23 12 28 -7 4 -17 5 -17 6 0 0 10 6 15 11 12 6 -4 8 -10 5 -15 -3
-4 2 -10 10 -13 9 -4 12 -1 9 7 -4 10 10 12 58 10 34 -2 64 -8 66 -14 2 -5 11
-10 20 -10 13 0 14 2 4 9 -10 6 -9 11 4 22 11 9 15 9 10 2 -4 -7 -2 -21 4 -30
11 -17 11 -17 6 0 -3 11 0 17 10 17 9 0 12 -5 8 -12 -5 -7 -3 -8 7 -2 19 11
79 13 79 2 0 -5 5 -6 12 -2 17 11 108 13 108 2 0 -4 -3 -7 -7 -7 -21 3 -33 -2
-27 -12 4 -8 9 -7 15 2 5 8 9 10 9 5 0 -5 7 -2 16 5 20 16 54 22 54 9 0 -6 8
-10 18 -10 12 0 14 3 4 8 -7 5 11 9 43 10 30 0 55 -4 55 -9 0 -5 8 -9 18 -9
14 0 15 2 2 10 -8 5 -10 10 -5 10 6 0 16 -5 21 -10 13 -13 46 -2 38 12 -4 6 3
5 15 -1 14 -8 21 -8 21 -1 0 5 4 10 10 10 5 0 7 -6 4 -14 -7 -17 20 -16 38 2
19 19 33 14 15 -6 -24 -26 -21 -36 3 -12 11 11 20 24 20 28 0 15 55 9 68 -7
11 -14 11 -14 6 2 -7 21 2 22 21 3 8 -7 11 -17 7 -21 -4 -5 -1 -5 6 0 10 5 11
10 3 18 -18 18 -13 31 6 16 10 -8 14 -9 10 -2 -4 6 -3 14 3 18 10 6 14 -7 11
-32 -1 -6 2 -14 7 -17 5 -3 8 6 6 19 -1 14 1 25 4 26 4 0 25 3 47 6 45 6 66 6
111 1 23 -3 30 0 27 9 -3 7 -10 10 -16 6 -6 -3 -7 -1 -3 5 7 11 36 9 59 -4 9
-6 9 -5 0 7 -10 12 -6 15 25 17 61 3 67 4 78 14 7 5 25 11 40 13 46 6 73 13
86 21 6 4 8 3 4 -4 -3 -6 -2 -14 4 -17 6 -4 10 -3 9 2 -4 23 3 34 19 31 9 -1
23 1 31 6 9 6 12 5 8 0 -3 -5 3 -10 13 -10 14 0 16 3 8 13 -8 10 -7 12 6 7 9
-4 16 -1 16 6 0 6 6 10 13 7 6 -2 20 0 30 5 11 5 17 5 17 -2 0 -5 11 -9 23 -8
13 1 24 8 24 15 0 10 -4 10 -14 1 -7 -6 -16 -8 -20 -4 -9 9 2 17 26 19 11 1
21 5 21 10 0 5 6 7 14 4 7 -3 23 1 35 9 11 8 21 12 21 8 0 -3 6 -1 14 5 10 8
16 9 21 1 3 -5 1 -10 -4 -10 -6 0 -11 -4 -11 -8 0 -5 7 -9 15 -9 8 0 12 4 9 9
-3 4 0 9 5 9 30 4 61 19 61 31 0 6 -6 5 -15 -2 -9 -7 -15 -8 -15 -2 0 15 26
22 38 10 7 -7 10 -4 9 8 -1 12 5 19 18 19 11 1 36 9 55 18 26 14 30 14 16 2
-11 -8 -15 -15 -9 -15 6 0 21 12 33 27 12 16 19 22 15 15 -3 -6 -2 -12 4 -12
5 0 11 5 13 12 2 6 12 12 21 14 9 1 15 -2 12 -6 -3 -5 -1 -11 4 -14 5 -4 8 5
7 18 -2 16 1 23 9 19 7 -2 12 -12 10 -21 -1 -9 0 -11 2 -4 3 7 10 9 16 5 7 -4
6 1 -2 11 -13 15 -13 19 0 27 27 17 79 22 95 8 12 -10 15 -10 12 2 -2 8 3 13
10 11 6 -1 12 2 12 7 0 5 9 13 20 16 11 3 20 10 20 15 0 5 -16 0 -35 -11 -19
-12 -35 -17 -35 -11 0 5 14 15 30 22 17 7 30 17 30 22 0 5 5 6 12 2 6 -4 16
-1 22 7 6 8 30 26 53 41 35 23 43 25 53 13 7 -8 18 -15 24 -14 7 0 6 2 -1 6
-21 8 -15 30 13 48 21 13 29 14 38 4 8 -9 8 -10 -3 -4 -10 6 -12 4 -5 -6 5 -8
9 -17 9 -21 0 -3 3 -9 7 -13 3 -4 5 1 3 12 -3 20 23 55 35 48 4 -3 11 2 14 10
4 12 2 13 -13 6 -10 -6 -22 -7 -26 -3 -5 4 -5 2 -1 -5 3 -6 2 -14 -3 -17 -5
-4 -8 1 -7 11 2 9 11 18 22 19 10 2 20 7 22 13 2 5 10 7 18 4 9 -3 14 0 12 8
-3 14 2 15 32 6 8 -2 12 -2 8 0 -12 7 -9 23 7 39 8 9 15 12 15 8 0 -5 5 -3 12
4 15 15 32 16 23 2 -3 -6 -2 -10 2 -10 5 0 14 9 21 21 7 12 19 18 27 15 9 -3
19 3 26 15 8 15 14 17 23 10 9 -8 13 -7 13 2 0 7 -9 14 -19 14 -10 1 -18 -3
-18 -8 0 -6 -4 -7 -10 -4 -5 3 -8 0 -7 -7 2 -7 2 -9 -1 -5 -2 5 -13 1 -23 -9
-10 -9 -19 -13 -19 -8 0 10 68 59 82 59 4 0 9 5 9 10 2 11 43 42 46 35 1 -3 8
3 16 14 12 16 17 17 36 6 13 -7 21 -7 17 -2 -3 6 4 18 16 26 12 9 18 16 14 16
-5 0 -17 -7 -27 -16 -11 -10 -19 -12 -24 -5 -3 6 -1 11 4 11 6 0 23 13 37 29
15 17 32 27 40 24 11 -4 12 -8 3 -20 -9 -10 -14 -11 -19 -2 -6 8 -9 8 -14 0
-4 -6 -4 -11 1 -12 4 0 16 -2 26 -4 11 -2 16 -1 13 2 -3 4 -1 12 5 19 7 8 7
14 -1 19 -19 12 -11 26 10 15 12 -6 17 -17 14 -28 -5 -14 -4 -15 5 -2 6 9 7
18 1 24 -16 16 -12 36 5 30 12 -5 14 -2 8 12 -6 16 -4 17 9 6 12 -10 18 -9 28
3 7 8 17 12 23 8 5 -3 7 -1 3 5 -3 5 -1 12 6 14 7 3 5 7 -6 11 -11 5 -15 3
-10 -5 5 -7 3 -8 -6 -3 -9 6 -11 4 -5 -5 6 -9 4 -11 -5 -5 -8 5 -11 4 -6 -3 3
-6 2 -13 -4 -17 -20 -12 -9 22 14 44 15 14 26 19 31 12 3 -6 14 -11 23 -10 14
0 15 1 2 7 -9 4 -15 12 -15 19 0 14 25 42 25 28 0 -5 11 6 24 23 l23 32 15
-22 c11 -17 16 -19 23 -8 5 8 4 11 -2 7 -6 -4 -14 0 -17 9 -8 22 -9 22 19 19
14 -2 25 1 25 7 0 6 -7 8 -15 5 -25 -10 -25 9 0 33 22 20 25 21 31 6 6 -15 7
-15 19 0 7 10 10 25 8 34 -4 15 1 17 29 14 23 -3 29 -1 18 5 -8 6 -17 8 -21 5
-19 -11 -16 15 3 32 12 11 18 13 14 7 -4 -7 -2 -13 4 -13 6 0 9 -4 5 -9 -3 -6
4 -8 16 -6 28 6 41 18 14 13 -15 -2 -20 3 -21 22 -1 34 12 49 42 45 13 -1 23
0 20 2 -3 3 7 15 21 27 19 17 22 23 10 23 -9 0 -14 -4 -11 -8 6 -10 -35 -33
-44 -25 -3 3 0 6 7 6 7 0 9 5 5 12 -4 6 -3 9 2 6 11 -6 45 28 36 37 -4 3 1 3
11 -1 9 -3 17 -11 17 -17 0 -6 3 -7 7 -4 3 4 -1 15 -10 24 -14 17 -14 20 7 44
19 22 26 25 42 16 17 -9 18 -9 5 6 -11 14 -11 20 0 35 8 9 18 20 22 23 5 3 8
9 7 13 -1 4 10 21 24 37 14 16 24 29 21 29 -3 0 11 21 30 46 19 25 35 49 35
54 0 5 8 16 18 26 9 10 17 20 17 23 1 21 24 43 36 35 20 -12 38 -14 44 -4 3 5
-3 7 -12 5 -29 -4 -44 13 -30 36 6 10 16 19 21 19 5 0 1 -9 -9 -20 -10 -11
-13 -20 -8 -20 6 0 14 7 17 16 3 8 10 12 16 9 6 -4 8 -11 5 -16 -10 -15 2 -10
16 8 8 10 9 14 2 10 -18 -11 -25 10 -13 35 10 21 10 21 -3 5 -8 -9 -18 -17
-22 -17 -5 0 -1 8 8 18 10 10 14 22 10 26 -4 4 1 4 12 0 14 -6 17 -4 12 9 -3
9 0 28 7 42 9 17 15 22 18 13 3 -7 -2 -18 -10 -24 -12 -9 -12 -13 -2 -19 9 -6
11 -4 5 5 -6 9 -1 10 16 5 19 -5 21 -4 9 4 -8 6 -12 11 -8 11 4 0 3 11 -2 24
-6 18 -5 28 5 36 8 7 12 16 9 21 -3 5 0 9 5 9 14 0 14 -13 -1 -28 -9 -9 -9
-12 -1 -12 15 0 25 33 17 54 -6 16 3 20 36 17 13 -2 13 -1 0 8 -8 5 -18 7 -22
5 -4 -3 -8 0 -8 5 0 6 5 11 11 11 5 0 7 5 3 11 -4 7 -1 10 7 7 8 -3 13 -11 11
-17 -1 -7 2 -10 8 -6 8 5 8 11 0 20 -15 18 -3 38 17 31 8 -3 11 -1 8 4 -3 6
-2 10 4 10 5 0 8 9 6 20 -3 13 2 20 13 21 9 0 12 3 6 5 -7 3 -9 14 -6 26 4 16
2 19 -8 13 -9 -5 -11 -4 -6 3 4 7 14 12 22 12 8 0 14 5 14 11 0 5 -4 8 -9 5
-14 -9 -6 23 9 37 12 10 12 9 2 -4 -10 -14 -10 -18 4 -23 21 -8 24 -8 24 5 0
5 -5 7 -12 3 -8 -5 -9 -2 -5 9 3 9 1 19 -5 23 -7 4 -5 10 6 16 9 5 16 14 16
19 0 6 -5 7 -11 4 -7 -5 -7 -2 0 11 11 21 24 55 25 67 1 4 7 12 15 16 8 5 11
16 8 26 -5 13 -3 15 12 10 11 -3 22 -2 25 3 3 6 -2 9 -11 8 -9 0 -18 5 -20 12
-3 8 1 10 13 5 13 -5 15 -3 8 8 -14 23 -13 36 4 35 19 -1 23 22 8 43 -9 12 -8
13 3 6 11 -6 13 -3 8 14 -5 19 -3 20 10 9 15 -12 15 -11 4 10 -11 21 -10 22
13 18 15 -3 26 0 26 6 0 5 -6 8 -14 5 -22 -9 -40 18 -22 32 8 7 13 21 11 32
-4 22 5 25 24 6 10 -10 11 -9 6 6 -4 9 -11 17 -17 17 -5 0 -6 5 -2 12 4 6 8
21 10 32 6 41 10 55 16 62 4 3 4 12 1 20 -3 8 0 14 7 14 9 0 10 3 1 14 -9 10
-8 16 4 26 18 15 20 35 3 24 -7 -5 -8 -3 -3 7 8 12 12 27 17 67 2 15 11 15 26
0 8 -8 12 -9 12 -1 0 6 -6 13 -12 15 -7 3 -13 19 -14 36 0 28 2 31 25 27 22
-4 23 -4 6 3 -24 11 -31 77 -8 68 11 -5 11 -1 2 15 -6 12 -7 24 -3 28 5 3 9
24 8 46 0 22 2 45 5 50 10 18 10 39 0 51 -7 8 -7 14 0 18 5 4 8 16 6 27 -3 16
0 19 15 14 10 -3 22 0 26 6 4 8 3 9 -4 5 -7 -4 -20 -2 -29 4 -14 9 -14 10 -2
7 9 -3 22 -1 30 4 11 8 9 9 -6 7 -17 -3 -20 3 -21 43 -1 40 2 46 18 41 10 -2
18 1 18 7 0 6 -3 10 -7 10 -19 -3 -33 2 -33 12 0 5 4 8 9 5 5 -3 11 1 14 9 4
10 1 12 -11 8 -15 -6 -15 -5 -3 10 9 11 9 17 2 17 -12 0 -10 27 2 48 5 7 12
10 16 8 4 -3 8 1 8 9 0 8 -4 15 -9 15 -4 0 -8 -4 -8 -10 0 -5 -4 -10 -10 -10
-12 0 10 51 30 68 13 11 12 11 -7 3 -29 -15 -38 -14 -24 2 8 10 7 17 -2 26 -9
11 -9 14 1 18 13 5 17 33 4 33 -5 0 -9 7 -9 15 0 17 14 20 19 5 2 -6 9 0 17
12 13 20 13 22 -1 10 -24 -19 -35 4 -33 68 0 30 -3 63 -8 74 -6 12 -6 16 1 12
6 -3 13 -2 17 4 3 5 -2 10 -12 10 -14 0 -15 2 -4 9 9 6 10 10 2 16 -9 5 -9 11
1 23 10 12 10 14 0 8 -8 -5 -11 -1 -8 16 2 13 -2 29 -8 37 -8 11 -8 13 2 7 6
-4 12 -3 12 3 0 5 -4 12 -8 15 -8 5 -11 26 -14 99 -1 15 -6 27 -10 27 -5 0 -6
5 -3 10 4 6 12 7 18 3 7 -3 3 3 -7 15 -21 24 -12 30 14 10 9 -7 5 -3 -8 10
-13 13 -18 22 -10 22 9 0 9 3 -2 10 -8 5 -15 17 -15 27 0 10 -4 24 -8 31 -9
13 3 16 19 5 5 -5 3 -1 -6 7 -8 9 -16 22 -18 30 -3 12 -1 12 15 0 11 -8 9 -5
-4 7 -13 12 -22 26 -21 30 1 4 -2 18 -6 31 -5 14 -3 28 4 37 8 10 8 15 -1 21
-8 5 -10 3 -4 -7 5 -8 4 -10 0 -6 -5 4 -10 13 -11 20 -8 39 -14 58 -19 67 -3
6 2 7 12 4 13 -4 12 -1 -4 12 -23 17 -34 62 -11 48 6 -4 8 -3 4 4 -3 6 2 16
11 22 14 9 15 10 2 7 -9 -3 -23 0 -30 6 -11 10 -11 9 0 -5 9 -12 10 -18 2 -18
-11 0 -12 4 -15 39 0 11 -4 23 -8 27 -14 14 -8 23 12 19 11 -2 22 0 25 5 3 5
-3 7 -13 5 -10 -2 -25 1 -33 6 -8 5 -10 9 -5 9 5 0 3 7 -4 15 -7 8 -9 15 -5
15 4 0 3 6 -2 13 -14 17 -23 58 -12 51 5 -3 6 2 3 10 -3 9 -10 14 -14 11 -16
-10 -18 35 -2 46 16 10 15 10 0 5 -11 -3 -22 2 -28 14 -6 11 -8 20 -5 20 3 0
1 10 -6 21 -8 16 -8 20 0 14 7 -4 10 -1 9 7 -2 7 3 12 10 10 8 -1 11 2 7 8 -4
6 -10 9 -13 6 -3 -3 -12 0 -21 7 -14 11 -14 10 -2 -5 7 -10 9 -18 3 -18 -16 0
-22 26 -9 40 9 10 9 11 0 6 -12 -6 -15 0 -12 20 0 4 -4 10 -9 13 -16 10 -43
71 -37 81 3 6 2 10 -4 10 -6 0 -7 7 -4 17 4 10 2 14 -5 9 -16 -10 -27 35 -11
46 11 7 9 8 -5 6 -10 -2 -21 3 -24 11 -2 8 0 11 5 8 5 -3 15 -1 23 4 13 9 13
10 0 8 -29 -3 -37 1 -48 25 -8 19 -8 26 1 30 7 2 5 5 -4 5 -19 1 -32 27 -22
43 3 6 2 8 -4 5 -9 -5 -38 41 -33 52 1 2 -3 7 -8 10 -16 10 -62 98 -55 105 4
3 2 6 -4 6 -6 0 -21 16 -32 36 -18 29 -19 35 -6 30 9 -3 13 -2 10 4 -3 6 -13
10 -22 10 -10 0 -13 6 -9 16 3 8 2 12 -4 9 -5 -3 -18 9 -29 27 -11 18 -25 39
-31 45 -6 7 -10 15 -10 18 1 22 -1 27 -7 22 -6 -6 -53 54 -53 67 0 6 -24 37
-48 62 -7 8 -10 19 -6 25 4 7 3 9 -4 5 -6 -3 -26 14 -47 41 -52 69 -86 111
-117 142 -15 15 -28 33 -30 41 -2 8 -12 19 -23 26 -11 6 -19 16 -17 23 1 7 -2
10 -7 7 -12 -8 -26 14 -15 23 5 3 10 13 12 21 1 10 -2 9 -13 -4 -15 -19 -15
-19 -40 4 -13 12 -23 26 -22 29 3 6 -46 57 -50 53 -2 -1 -6 -2 -10 -2 -5 0 -1
5 7 10 13 8 12 10 -3 10 -20 0 -67 43 -67 60 0 6 -4 8 -10 5 -5 -3 -10 -1 -10
4 0 6 -7 11 -16 11 -8 0 -12 5 -9 10 3 6 -1 10 -10 10 -11 0 -15 5 -12 15 4 8
1 17 -5 21 -7 4 -8 3 -4 -4 4 -7 2 -12 -3 -12 -6 0 -16 9 -23 20 -7 11 -18 20
-24 20 -15 0 -54 47 -46 56 4 4 2 4 -5 0 -14 -8 -55 23 -47 36 3 5 2 7 -3 6
-16 -4 -51 13 -57 27 -3 8 -12 15 -21 15 -8 0 -15 7 -15 16 0 8 -4 12 -10 9
-5 -3 -10 -3 -10 2 0 4 -13 14 -30 21 -16 8 -30 20 -30 28 0 8 -6 11 -17 7
-13 -5 -15 -2 -10 11 4 10 3 15 -3 11 -13 -8 -80 37 -81 55 0 10 -2 11 -6 3
-7 -19 -42 7 -36 26 4 13 3 13 -5 2 -10 -15 -13 -13 -60 29 -9 8 -24 15 -32
15 -8 0 -14 6 -12 13 1 8 -3 12 -10 9 -20 -7 -90 32 -82 45 4 6 3 8 -3 5 -12
-7 -63 14 -63 26 0 5 -4 5 -10 2 -5 -3 -10 -1 -10 4 0 6 -3 10 -7 9 -11 -2
-65 23 -87 41 -13 10 -17 11 -12 3 7 -11 4 -11 -13 0 -12 7 -21 16 -21 21 0 4
-4 5 -10 2 -5 -3 -10 -2 -10 3 0 5 -7 9 -15 10 -8 1 -22 3 -30 4 -8 1 -15 8
-15 15 0 8 -4 12 -9 8 -11 -6 -91 26 -91 37 0 4 -9 5 -20 3 -13 -3 -20 2 -21
13 0 9 -3 12 -5 5 -4 -8 -17 -6 -47 8 -23 10 -50 19 -59 19 -10 0 -18 4 -18
10 0 5 -3 9 -7 9 -19 -3 -34 2 -29 10 3 4 -8 7 -24 5 -16 -2 -35 2 -42 10 -7
7 -19 11 -27 8 -10 -3 -12 0 -7 14 6 15 5 17 -5 7 -15 -14 -43 -18 -35 -4 3 4
-6 6 -19 3 -14 -2 -25 0 -25 7 0 5 -6 8 -12 6 -14 -5 -91 19 -84 26 2 2 -10 4
-27 5 -28 1 -72 8 -87 15 -10 4 -25 7 -49 8 -16 1 -21 5 -18 16 4 8 2 17 -4
20 -5 4 -8 1 -7 -7 4 -16 -80 -12 -101 5 -8 7 -12 8 -9 2 3 -6 -4 -10 -17 -10
-13 0 -21 3 -18 8 2 4 -8 8 -24 8 -33 1 -78 7 -113 13 -14 2 -42 5 -63 5 -28
1 -36 4 -31 14 5 8 2 8 -9 -2 -16 -13 -21 -9 -18 14 1 6 -5 2 -12 -7 -8 -10
-16 -15 -19 -13 -3 3 -30 7 -61 9 -31 2 -60 7 -66 10 -5 4 -12 2 -16 -4 -4 -6
-10 -8 -13 -6 -4 2 -34 5 -67 7 -33 1 -63 7 -67 13 -5 8 -8 8 -8 0z m3607
-4989 c0 -8 -4 -12 -9 -9 -5 3 -6 10 -3 15 9 13 12 11 12 -6z m-142 -365 c-3
-5 -8 -20 -10 -31 -5 -26 -13 -35 -22 -25 -4 4 -2 11 6 15 7 5 12 11 12 15 -3
22 0 36 10 36 5 0 7 -4 4 -10z m-660 -1019 c3 -5 1 -12 -5 -16 -5 -3 -10 1
-10 9 0 18 6 21 15 7z m-1050 -811 c3 -6 -1 -7 -9 -4 -18 7 -21 14 -7 14 6 0
13 -4 16 -10z m-371 -168 c2 -4 -4 -9 -15 -9 -10 -1 -19 2 -19 8 0 11 27 12
34 1z m-2534 -82 c0 -5 -2 -10 -4 -10 -3 0 -8 5 -11 10 -3 6 -1 10 4 10 6 0
11 -4 11 -10z m1850 -110 c0 -5 -2 -10 -4 -10 -3 0 -8 5 -11 10 -3 6 -1 10 4
10 6 0 11 -4 11 -10z m-358 -52 c-7 -7 -12 -8 -12 -2 0 14 12 26 19 19 2 -3
-1 -11 -7 -17z m-92 2 c0 -5 -5 -10 -11 -10 -5 0 -7 5 -4 10 3 6 8 10 11 10 2
0 4 -4 4 -10z"/>
<path d="M4790 7646 c0 -2 7 -7 16 -10 8 -3 12 -2 9 4 -6 10 -25 14 -25 6z"/>
<path d="M5570 7366 c0 -2 7 -7 16 -10 8 -3 12 -2 9 4 -6 10 -25 14 -25 6z"/>
<path d="M5750 7276 c0 -2 8 -10 18 -17 15 -13 16 -12 3 4 -13 16 -21 21 -21
13z"/>
<path d="M6110 7041 c0 -6 4 -13 10 -16 6 -3 7 1 4 9 -7 18 -14 21 -14 7z"/>
<path d="M6240 6960 c-9 -6 -10 -10 -3 -10 6 0 15 5 18 10 8 12 4 12 -15 0z"/>
<path d="M6637 6603 c-10 -9 -9 -23 1 -23 5 0 9 7 9 15 0 17 -1 18 -10 8z"/>
<path d="M6828 6373 c7 -3 16 -2 19 1 4 3 -2 6 -13 5 -11 0 -14 -3 -6 -6z"/>
<path d="M6873 6329 c-2 -23 3 -25 10 -4 4 8 3 16 -1 19 -4 3 -9 -4 -9 -15z"/>
<path d="M6900 6278 c0 -4 7 -8 15 -8 8 0 15 4 15 8 0 5 -7 9 -15 9 -8 0 -15
-4 -15 -9z"/>
<path d="M7026 6117 c3 -10 9 -15 12 -12 3 3 0 11 -7 18 -10 9 -11 8 -5 -6z"/>
<path d="M7076 6073 c-6 -14 -5 -15 5 -6 7 7 10 15 7 18 -3 3 -9 -2 -12 -12z"/>
<path d="M7097 6010 c7 -8 20 -15 29 -16 9 -1 13 1 9 4 -4 4 -10 7 -13 7 -4 0
-14 4 -22 9 -12 7 -13 6 -3 -4z"/>
<path d="M7220 5817 c0 -16 21 -47 33 -47 8 0 9 3 1 8 -6 4 -16 16 -22 27 -6
11 -12 16 -12 12z"/>
<path d="M7268 5743 c7 -3 16 -2 19 1 4 3 -2 6 -13 5 -11 0 -14 -3 -6 -6z"/>
<path d="M7305 5680 c-3 -6 1 -7 9 -4 18 7 21 14 7 14 -6 0 -13 -4 -16 -10z"/>
<path d="M7401 5443 c7 -10 15 -20 16 -22 2 -2 3 3 3 11 0 9 -7 19 -16 22 -15
6 -15 4 -3 -11z"/>
<path d="M7475 5261 c-6 -11 13 -26 22 -17 4 3 1 6 -6 6 -7 0 -9 5 -6 10 3 6
4 10 1 10 -3 0 -7 -4 -11 -9z"/>
<path d="M7530 5116 c7 -7 13 -7 20 0 6 6 3 10 -10 10 -13 0 -16 -4 -10 -10z"/>
<path d="M7531 5087 c2 -1 13 -9 24 -17 19 -14 19 -14 6 3 -7 9 -18 17 -24 17
-6 0 -8 -1 -6 -3z"/>
<path d="M7571 5004 c0 -11 3 -14 6 -6 3 7 2 16 -1 19 -3 4 -6 -2 -5 -13z"/>
<path d="M7588 4913 c7 -3 16 -2 19 1 4 3 -2 6 -13 5 -11 0 -14 -3 -6 -6z"/>
<path d="M7606 4843 c-6 -14 -5 -15 5 -6 7 7 10 15 7 18 -3 3 -9 -2 -12 -12z"/>
<path d="M7629 4738 c7 -9 9 -23 5 -30 -6 -10 -4 -11 7 0 11 10 10 15 -6 30
-17 15 -18 15 -6 0z"/>
<path d="M7675 4481 c-3 -5 0 -13 6 -17 7 -4 9 -3 5 4 -3 5 0 13 6 15 9 4 10
6 1 6 -6 1 -14 -3 -18 -8z"/>
<path d="M7674 4442 c4 -3 14 -7 22 -8 9 -1 13 0 10 4 -4 3 -14 7 -22 8 -9 1
-13 0 -10 -4z"/>
<path d="M7685 4380 c-3 -6 1 -7 9 -4 18 7 21 14 7 14 -6 0 -13 -4 -16 -10z"/>
<path d="M7701 4303 c7 -12 15 -20 18 -17 3 2 -3 12 -13 22 -17 16 -18 16 -5
-5z"/>
<path d="M7710 4260 c0 -5 5 -10 11 -10 5 0 7 5 4 10 -3 6 -8 10 -11 10 -2 0
-4 -4 -4 -10z"/>
<path d="M7710 4201 c0 -6 4 -13 10 -16 6 -3 7 1 4 9 -7 18 -14 21 -14 7z"/>
<path d="M7710 4115 c0 -8 4 -15 10 -15 5 0 7 7 4 15 -4 8 -8 15 -10 15 -2 0
-4 -7 -4 -15z"/>
<path d="M7710 3980 c-13 -8 -12 -10 3 -10 9 0 17 5 17 10 0 12 -1 12 -20 0z"/>
<path d="M7708 3823 c7 -3 16 -2 19 1 4 3 -2 6 -13 5 -11 0 -14 -3 -6 -6z"/>
<path d="M7703 3679 c-2 -23 3 -25 10 -4 4 8 3 16 -1 19 -4 3 -9 -4 -9 -15z"/>
<path d="M7685 3570 c-4 -6 1 -7 11 -3 13 5 15 3 9 -7 -5 -9 -4 -11 4 -6 6 4
9 12 6 17 -8 12 -22 12 -30 -1z"/>
<path d="M7700 3531 c0 -6 4 -13 10 -16 6 -3 7 1 4 9 -7 18 -14 21 -14 7z"/>
<path d="M7685 3500 c-3 -5 -1 -10 4 -10 6 0 11 5 11 10 0 6 -2 10 -4 10 -3 0
-8 -4 -11 -10z"/>
<path d="M7690 3455 c10 -12 10 -15 0 -15 -8 0 -11 -3 -7 -6 3 -3 10 -3 16 0
12 8 3 36 -11 36 -6 0 -5 -6 2 -15z"/>
<path d="M7670 3396 c0 -2 6 -9 14 -15 11 -9 16 -9 22 0 4 8 3 9 -4 5 -7 -4
-12 -2 -12 3 0 6 -4 11 -10 11 -5 0 -10 -2 -10 -4z"/>
<path d="M7678 3336 c-22 -16 -23 -23 -3 -23 8 0 13 3 10 5 -3 3 0 11 6 19 14
16 9 16 -13 -1z"/>
<path d="M7654 3264 c1 -7 6 -17 11 -21 4 -4 5 -3 1 4 -3 7 1 13 11 15 15 3
15 5 -3 10 -15 4 -21 1 -20 -8z"/>
<path d="M7636 3194 c-4 -9 -4 -19 -1 -22 2 -3 7 3 11 12 4 9 4 19 1 22 -2 3
-7 -3 -11 -12z"/>
<path d="M7637 3158 c-7 -5 0 -6 17 -4 16 3 31 7 33 10 8 8 -37 2 -50 -6z"/>
<path d="M7625 3120 c-10 -11 -13 -20 -7 -20 7 0 12 5 12 11 0 5 4 8 8 5 5 -3
9 1 9 9 0 19 0 19 -22 -5z"/>
<path d="M7635 3091 c-3 -5 -2 -12 3 -15 5 -3 9 1 9 9 0 17 -3 19 -12 6z"/>
<path d="M7605 3040 c-3 -6 1 -7 9 -4 18 7 21 14 7 14 -6 0 -13 -4 -16 -10z"/>
<path d="M7596 3003 c-6 -14 -5 -15 5 -6 7 7 10 15 7 18 -3 3 -9 -2 -12 -12z"/>
<path d="M7595 2960 c-4 -6 1 -7 11 -3 13 5 15 3 9 -7 -5 -9 -4 -11 4 -6 6 4
9 12 6 17 -8 12 -22 12 -30 -1z"/>
<path d="M7575 2903 c3 -3 -2 -15 -12 -25 -9 -11 -11 -18 -5 -18 7 0 12 5 12
11 0 5 4 8 9 5 11 -7 9 21 -2 29 -4 3 -5 2 -2 -2z"/>
<path d="M7550 2779 c0 -5 5 -7 10 -4 6 3 10 8 10 11 0 2 -4 4 -10 4 -5 0 -10
-5 -10 -11z"/>
<path d="M7530 2699 c0 -5 5 -7 10 -4 6 3 10 8 10 11 0 2 -4 4 -10 4 -5 0 -10
-5 -10 -11z"/>
<path d="M7495 2620 c3 -5 8 -10 11 -10 2 0 4 5 4 10 0 6 -5 10 -11 10 -5 0
-7 -4 -4 -10z"/>
<path d="M7475 2613 c3 -3 0 -12 -7 -20 -6 -7 -8 -16 -5 -20 4 -3 2 -12 -4
-19 -7 -8 -7 -14 1 -19 6 -4 9 -1 8 6 -2 7 2 13 9 14 6 0 15 4 20 8 4 5 2 7
-6 5 -7 -1 -16 3 -19 11 -2 8 0 11 6 7 11 -7 10 20 -1 29 -4 3 -5 2 -2 -2z"/>
<path d="M7315 2220 c3 -5 8 -10 11 -10 2 0 4 5 4 10 0 6 -5 10 -11 10 -5 0
-7 -4 -4 -10z"/>
<path d="M7296 2142 c-3 -5 1 -9 9 -9 8 0 12 4 9 9 -3 4 -7 8 -9 8 -2 0 -6 -4
-9 -8z"/>
<path d="M530 2119 c0 -5 5 -7 10 -4 6 3 10 8 10 11 0 2 -4 4 -10 4 -5 0 -10
-5 -10 -11z"/>
<path d="M7235 2040 c-3 -5 -1 -10 4 -10 6 0 11 5 11 10 0 6 -2 10 -4 10 -3 0
-8 -4 -11 -10z"/>
<path d="M7145 1940 c-3 -5 -3 -10 1 -10 4 0 -2 -10 -13 -22 -11 -13 -23 -30
-28 -38 -4 -8 5 0 20 18 15 19 31 29 38 25 7 -4 5 2 -3 12 -14 17 -13 18 3 12
11 -4 16 -3 12 3 -8 13 -22 13 -30 0z"/>
<path d="M7135 1879 c-4 -6 -4 -13 -1 -16 3 -4 6 -1 6 5 0 6 8 13 18 15 15 4
15 5 0 6 -9 0 -20 -4 -23 -10z"/>
<path d="M7096 1839 c4 -8 30 -6 38 2 3 3 -5 5 -19 5 -13 0 -22 -3 -19 -7z"/>
<path d="M7062 1807 l-21 -22 26 -2 c17 -1 21 2 13 7 -7 4 -9 13 -5 20 6 9 9
9 16 -1 6 -10 9 -10 9 -2 0 22 -17 22 -38 0z"/>
<path d="M7024 1749 c-9 -16 2 -22 21 -11 15 8 16 10 1 15 -8 3 -18 2 -22 -4z"/>
<path d="M6995 1720 c-4 -6 -3 -10 1 -10 4 0 -2 -11 -15 -23 -19 -21 -20 -26
-7 -36 12 -10 14 -9 11 6 -4 27 5 35 23 21 15 -11 15 -11 4 4 -11 14 -10 18 4
26 14 8 15 10 0 15 -8 3 -18 2 -21 -3z"/>
<path d="M6916 1611 c-15 -16 -15 -19 -2 -24 9 -4 18 -1 22 5 4 7 3 8 -4 4 -7
-4 -12 -2 -12 3 0 11 13 15 40 12 13 -2 13 -1 0 8 -21 14 -24 14 -44 -8z"/>
<path d="M6805 1480 c-3 -5 -1 -10 4 -10 6 0 11 5 11 10 0 6 -2 10 -4 10 -3 0
-8 -4 -11 -10z"/>
<path d="M6830 1481 c0 -6 4 -13 10 -16 6 -3 7 1 4 9 -7 18 -14 21 -14 7z"/>
<path d="M6806 1448 c3 -5 10 -6 15 -3 13 9 11 12 -6 12 -8 0 -12 -4 -9 -9z"/>
<path d="M6674 1328 c-10 -13 -12 -17 -4 -11 11 10 17 10 29 0 14 -10 14 -10
4 4 -7 9 -10 19 -6 22 3 4 4 7 1 7 -3 0 -13 -10 -24 -22z"/>
<path d="M6613 1258 c-21 -27 -22 -36 -8 -42 8 -3 17 0 21 6 4 7 3 8 -4 4 -7
-4 -12 -1 -12 9 0 11 5 15 14 12 10 -4 13 -1 9 9 -6 17 -8 17 -20 2z"/>
<path d="M6567 1223 c-3 -5 4 -15 16 -23 21 -12 21 -12 7 6 -8 10 -15 20 -16
22 -1 2 -4 -1 -7 -5z"/>
<path d="M1255 1180 c-3 -6 1 -7 9 -4 18 7 21 14 7 14 -6 0 -13 -4 -16 -10z"/>
<path d="M6490 1099 c0 -5 5 -7 10 -4 6 3 10 8 10 11 0 2 -4 4 -10 4 -5 0 -10
-5 -10 -11z"/>
<path d="M1456 1002 c-2 -4 4 -8 14 -8 10 0 16 4 14 8 -3 4 -9 8 -14 8 -5 0
-11 -4 -14 -8z"/>
<path d="M6388 1003 c7 -3 16 -2 19 1 4 3 -2 6 -13 5 -11 0 -14 -3 -6 -6z"/>
<path d="M6313 968 c-1 -11 1 -16 5 -12 4 5 11 12 15 15 5 3 2 9 -5 12 -9 3
-14 -3 -15 -15z"/>
<path d="M6271 956 c-8 -9 -10 -16 -5 -16 5 0 3 -4 -5 -9 -9 -6 -10 -11 -2
-15 10 -6 15 6 12 27 0 4 4 7 9 7 6 0 10 -5 10 -12 0 -6 3 -9 6 -5 3 3 2 13
-3 22 -9 15 -11 15 -22 1z"/>
<path d="M1553 935 c0 -8 4 -12 9 -9 5 3 6 10 3 15 -9 13 -12 11 -12 -6z"/>
<path d="M1660 846 c0 -2 7 -7 16 -10 8 -3 12 -2 9 4 -6 10 -25 14 -25 6z"/>
<path d="M6094 814 c-10 -9 -13 -12 -5 -8 7 3 17 1 21 -6 5 -8 9 -8 13 4 9 22
-7 28 -29 10z"/>
<path d="M1795 761 c-3 -5 -2 -12 3 -15 5 -3 9 1 9 9 0 17 -3 19 -12 6z"/>
<path d="M6050 759 c0 -5 5 -7 10 -4 6 3 10 8 10 11 0 2 -4 4 -10 4 -5 0 -10
-5 -10 -11z"/>
<path d="M1835 720 c-3 -5 -2 -10 4 -10 5 0 13 5 16 10 3 6 2 10 -4 10 -5 0
-13 -4 -16 -10z"/>
<path d="M1866 702 c-3 -5 1 -9 9 -9 8 0 12 4 9 9 -3 4 -7 8 -9 8 -2 0 -6 -4
-9 -8z"/>
<path d="M5914 699 c-3 -6 -1 -16 5 -22 9 -9 10 -7 5 7 -6 15 -4 17 6 11 9 -5
11 -4 6 3 -9 15 -13 15 -22 1z"/>
<path d="M5990 701 c0 -6 4 -13 10 -16 6 -3 7 1 4 9 -7 18 -14 21 -14 7z"/>
<path d="M5851 663 c-5 -10 -13 -17 -18 -15 -4 2 -9 -2 -11 -10 -2 -9 0 -8 7
2 6 8 11 11 11 6 0 -5 6 -3 13 3 8 6 17 8 21 4 4 -4 4 0 0 10 -8 21 -11 21
-23 0z"/>
<path d="M5790 618 c-12 -22 -12 -22 6 -6 10 10 15 20 12 24 -4 3 -12 -5 -18
-18z"/>
<path d="M5836 622 c-3 -5 1 -9 9 -9 8 0 12 4 9 9 -3 4 -7 8 -9 8 -2 0 -6 -4
-9 -8z"/>
<path d="M2036 598 c3 -5 10 -6 15 -3 13 9 11 12 -6 12 -8 0 -12 -4 -9 -9z"/>
<path d="M2110 576 c0 -2 7 -9 15 -16 9 -7 15 -8 15 -2 0 5 -7 12 -15 16 -8 3
-15 4 -15 2z"/>
<path d="M5620 531 c-8 -6 -18 -7 -22 -5 -4 3 -8 1 -8 -5 0 -14 39 -9 44 6 6
15 5 16 -14 4z"/>
<path d="M5653 525 c0 -8 4 -12 9 -9 5 3 6 10 3 15 -9 13 -12 11 -12 -6z"/>
<path d="M5513 472 c2 -12 6 -24 10 -28 3 -4 4 4 2 16 -6 30 -16 40 -12 12z"/>
<path d="M2375 440 c3 -5 8 -10 11 -10 2 0 4 5 4 10 0 6 -5 10 -11 10 -5 0 -7
-4 -4 -10z"/>
<path d="M5405 429 c-4 -6 -5 -12 -2 -15 2 -3 7 2 10 11 7 17 1 20 -8 4z"/>
<path d="M5371 414 c6 -7 8 -18 5 -23 -4 -5 -3 -12 2 -15 5 -3 8 8 8 23 0 16
-5 28 -13 28 -9 0 -10 -4 -2 -13z"/>
<path d="M5426 421 c-4 -5 3 -7 14 -4 23 6 26 13 6 13 -8 0 -17 -4 -20 -9z"/>
<path d="M2430 416 c0 -2 8 -10 18 -17 15 -13 16 -12 3 4 -13 16 -21 21 -21
13z"/>
<path d="M2516 382 c-3 -5 1 -9 9 -9 8 0 12 4 9 9 -3 4 -7 8 -9 8 -2 0 -6 -4
-9 -8z"/>
<path d="M5220 360 c0 -5 5 -10 11 -10 5 0 7 5 4 10 -3 6 -8 10 -11 10 -2 0
-4 -4 -4 -10z"/>
<path d="M5166 333 c-6 -14 -5 -15 5 -6 7 7 10 15 7 18 -3 3 -9 -2 -12 -12z"/>
<path d="M5190 340 c0 -5 5 -10 10 -10 6 0 10 5 10 10 0 6 -4 10 -10 10 -5 0
-10 -4 -10 -10z"/>
<path d="M2675 320 c3 -5 8 -10 11 -10 2 0 4 5 4 10 0 6 -5 10 -11 10 -5 0 -7
-4 -4 -10z"/>
<path d="M5070 298 c0 -6 3 -8 7 -5 3 4 16 -1 27 -10 21 -18 21 -18 2 5 -21
24 -36 29 -36 10z"/>
<path d="M4954 269 c-3 -6 1 -17 10 -25 9 -8 11 -9 6 -2 -15 18 -12 28 5 22 8
-4 15 -4 15 -1 0 11 -30 15 -36 6z"/>
<path d="M2835 260 c3 -5 8 -10 11 -10 2 0 4 5 4 10 0 6 -5 10 -11 10 -5 0 -7
-4 -4 -10z"/>
<path d="M4895 249 c-4 -5 -4 -13 -1 -16 3 -4 6 0 6 8 0 11 2 11 10 -1 6 -9
10 -10 10 -3 0 17 -17 25 -25 12z"/>
<path d="M2910 241 c0 -6 4 -12 8 -15 5 -3 9 1 9 9 0 8 -4 15 -9 15 -4 0 -8
-4 -8 -9z"/>
<path d="M4832 238 c2 -6 10 -13 16 -14 7 -1 8 0 2 3 -5 2 -8 9 -4 14 3 5 0 9
-6 9 -7 0 -10 -5 -8 -12z"/>
<path d="M3106 202 c-3 -5 1 -9 9 -9 8 0 12 4 9 9 -3 4 -7 8 -9 8 -2 0 -6 -4
-9 -8z"/>
<path d="M4660 206 c0 -2 8 -10 18 -17 15 -13 16 -12 3 4 -13 16 -21 21 -21
13z"/>
<path d="M4735 199 c-11 -16 -1 -19 13 -3 7 8 8 14 3 14 -5 0 -13 -5 -16 -11z"/>
<path d="M3190 180 c0 -5 5 -10 11 -10 5 0 7 5 4 10 -3 6 -8 10 -11 10 -2 0
-4 -4 -4 -10z"/>
<path d="M4570 170 c-9 -6 -10 -10 -3 -10 6 0 15 5 18 10 8 12 4 12 -15 0z"/>
<path d="M4325 149 c-4 -6 -5 -12 -2 -15 2 -3 7 2 10 11 7 17 1 20 -8 4z"/>
<path d="M3415 140 c3 -5 8 -10 11 -10 2 0 4 5 4 10 0 6 -5 10 -11 10 -5 0 -7
-4 -4 -10z"/>
<path d="M3606 142 c-3 -5 1 -9 9 -9 8 0 12 4 9 9 -3 4 -7 8 -9 8 -2 0 -6 -4
-9 -8z"/>
<path d="M4350 140 c0 -5 5 -10 11 -10 5 0 7 5 4 10 -3 6 -8 10 -11 10 -2 0
-4 -4 -4 -10z"/>
<path d="M3553 125 c0 -8 4 -12 9 -9 5 3 6 10 3 15 -9 13 -12 11 -12 -6z"/>
<path d="M3961 118 c-13 -20 -12 -22 1 -11 8 7 18 10 22 6 4 -4 4 0 0 10 -8
21 -6 21 -23 -5z"/>
<path d="M4085 129 c-4 -6 -5 -12 -2 -15 2 -3 7 2 10 11 7 17 1 20 -8 4z"/>
<path d="M3835 120 c3 -5 8 -10 11 -10 2 0 4 5 4 10 0 6 -5 10 -11 10 -5 0 -7
-4 -4 -10z"/>
<path d="M3775 100 c-3 -5 -1 -10 4 -10 6 0 11 5 11 10 0 6 -2 10 -4 10 -3 0
-8 -4 -11 -10z"/>
<path d="M4015 100 c-3 -5 -1 -10 4 -10 6 0 11 5 11 10 0 6 -2 10 -4 10 -3 0
-8 -4 -11 -10z"/>
</g>
</svg>
